<?xml version="1.0" encoding="UTF-8"?>
<svg xmlns="http://www.w3.org/2000/svg" version="1.1" viewBox="0 0 258 46">
  <defs>
    <style>
      .cls-1 {
        fill: #fff;
      }

      .cls-2 {
        stroke: #204b4a;
        stroke-miterlimit: 10;
      }

      .cls-2, .cls-3 {
        fill: #204b4a;
      }
    </style>
  </defs>
  <!-- Generator: Adobe Illustrator 28.7.1, SVG Export Plug-In . SVG Version: 1.2.0 Build 142)  -->
  <g>
    <g id="Layer_1">
      <rect class="cls-3" x="4" y="1" width="250" height="44" rx="4" ry="4"/>
      <path class="cls-1" d="M188.5,37.7c0,.5,0,.9-.3,1.3-.2.4-.4.8-.7,1.1-.3.3-.7.6-1.1.7-.4.2-.9.3-1.3.3h-113c-.9,0-1.8-.4-2.4-1-.6-.6-1-1.5-1-2.4V10.2c0-.9.4-1.8,1-2.4.6-.6,1.5-1,2.4-1h113c.5,0,.9,0,1.3.3.4.2.8.4,1.1.7s.6.7.7,1.1c.2.4.3.9.3,1.3v27.5Z"/>
      <path class="cls-2" d="M188.5,37.7c0,.5,0,.9-.3,1.3-.2.4-.4.8-.7,1.1-.3.3-.7.6-1.1.7-.4.2-.9.3-1.3.3h-113c-.9,0-1.8-.4-2.4-1-.6-.6-1-1.5-1-2.4V10.2c0-.9.4-1.8,1-2.4.6-.6,1.5-1,2.4-1h113c.5,0,.9,0,1.3.3.4.2.8.4,1.1.7s.6.7.7,1.1c.2.4.3.9.3,1.3v27.5Z"/>
      <path class="cls-1" d="M94.9,23.7c0-2.9,2.4-4.3,2.5-4.4-1.4-2-3.5-2.3-4.2-2.3-1.8-.2-3.5,1.1-4.4,1.1s-2.3-1-3.8-1c-1.9,0-3.7,1.1-4.7,2.9-2,3.5-.5,8.7,1.4,11.6,1,1.4,2.1,3,3.6,2.9,1.5,0,2-.9,3.8-.9s2.3.9,3.8.9c1.6,0,2.6-1.4,3.5-2.8,1.1-1.6,1.6-3.2,1.6-3.3,0,0-3-1.2-3.1-4.6ZM92,15.2c.8-1,1.3-2.3,1.2-3.7-1.1,0-2.6.8-3.4,1.8-.7.8-1.4,2.2-1.2,3.5,1.3,0,2.6-.6,3.4-1.6Z"/>
      <path class="cls-1" d="M116.1,34.3h-2l-1.1-3.5h-3.9l-1.1,3.5h-2l3.9-12h2.4l3.9,12ZM112.6,29.3l-1-3.1c-.1-.3-.3-1.1-.6-2.3h0c-.1.5-.3,1.3-.6,2.3l-1,3.1h3.2ZM126,29.9c0,1.5-.4,2.6-1.2,3.5-.7.8-1.6,1.1-2.7,1.1s-2-.4-2.5-1.2v4.5h-1.9v-9.3c0-.9,0-1.9,0-2.8h1.7v1.4h.1c.6-1,1.6-1.5,2.9-1.5s1.9.4,2.6,1.2c.7.8,1,1.9,1,3.2ZM124,29.9c0-.8-.2-1.5-.6-2.1-.4-.6-1-.9-1.7-.9s-.9.2-1.3.5c-.4.3-.6.7-.8,1.2,0,.2,0,.4,0,.6v1.4c0,.6.2,1.2.6,1.6.4.4.9.6,1.5.6s1.3-.3,1.7-.8c.4-.6.6-1.3.6-2.2ZM135.9,29.9c0,1.5-.4,2.6-1.2,3.5-.7.8-1.6,1.1-2.7,1.1s-2-.4-2.5-1.2v4.5h-1.9v-9.3c0-.9,0-1.9,0-2.8h1.7v1.4h.1c.6-1,1.6-1.5,2.9-1.5s1.9.4,2.6,1.2c.7.8,1,1.9,1,3.2ZM134,29.9c0-.8-.2-1.5-.6-2.1-.4-.6-1-.9-1.7-.9s-.9.2-1.3.5c-.4.3-.6.7-.8,1.2,0,.2,0,.4,0,.6v1.4c0,.6.2,1.2.6,1.6.4.4.9.6,1.5.6s1.3-.3,1.7-.8c.4-.6.6-1.3.6-2.2ZM147,30.9c0,1-.4,1.8-1.1,2.5-.8.7-1.9,1-3.3,1s-2.3-.2-3.1-.7l.4-1.6c.8.5,1.8.7,2.8.7s1.3-.2,1.7-.5c.4-.3.6-.8.6-1.3s-.2-.9-.5-1.2c-.3-.3-.9-.6-1.7-.9-2.1-.8-3.1-1.9-3.1-3.4s.4-1.8,1.1-2.4c.7-.6,1.7-.9,2.9-.9s2,.2,2.7.6l-.5,1.6c-.7-.4-1.4-.6-2.3-.6s-1.2.2-1.6.5c-.3.3-.5.7-.5,1.1s.2.9.6,1.2c.3.3.9.6,1.7.9,1,.4,1.8.9,2.3,1.5.5.6.7,1.3.7,2.1ZM153.4,27.1h-2.1v4.2c0,1.1.4,1.6,1.1,1.6s.6,0,.9,0v1.5c-.3.1-.8.2-1.4.2s-1.4-.2-1.8-.7c-.4-.5-.6-1.2-.6-2.3v-4.4h-1.3v-1.4h1.3v-1.6l1.9-.6v2.2h2.1v1.4ZM162.9,29.9c0,1.3-.4,2.4-1.1,3.3-.8.9-1.8,1.3-3.2,1.3s-2.3-.4-3-1.3c-.8-.8-1.1-1.9-1.1-3.2s.4-2.4,1.2-3.3c.8-.9,1.8-1.3,3.1-1.3s2.3.4,3.1,1.3c.7.8,1.1,1.9,1.1,3.2ZM160.9,30c0-.8-.2-1.5-.5-2-.4-.7-1-1-1.7-1s-1.4.3-1.8,1c-.3.6-.5,1.3-.5,2.1s.2,1.5.5,2c.4.7,1,1,1.7,1s1.3-.4,1.7-1c.4-.6.5-1.3.5-2.1ZM169.2,27.3c-.2,0-.4,0-.6,0-.7,0-1.2.3-1.6.8-.3.5-.5,1-.5,1.7v4.5h-1.9v-5.9c0-.9,0-1.8,0-2.7h1.7v1.7h.1c.2-.6.5-1,1-1.4.4-.3.9-.5,1.4-.5.2,0,.3,0,.5,0v1.8ZM177.8,29.6c0,.3,0,.6,0,.9h-5.8c0,.9.3,1.5.8,2,.5.4,1.1.6,1.9.6s1.6-.1,2.3-.4l.3,1.3c-.8.4-1.8.5-2.9.5s-2.4-.4-3.2-1.2c-.8-.8-1.1-1.8-1.1-3.2s.4-2.4,1.1-3.3c.7-.9,1.8-1.4,3-1.4s2.2.5,2.8,1.4c.5.7.8,1.6.8,2.7ZM175.9,29.1c0-.6-.1-1.1-.4-1.5-.3-.5-.8-.8-1.5-.8s-1.1.3-1.5.8c-.3.4-.5.9-.6,1.5h4Z"/>
      <path class="cls-1" d="M108.5,18.1c-.5,0-1,0-1.4,0v-5.8c.5,0,1.1-.1,1.6-.1,2.2,0,3.2,1.1,3.2,2.8s-1.2,3.1-3.5,3.1ZM108.8,12.8c-.3,0-.6,0-.8,0v4.4c.1,0,.3,0,.6,0,1.4,0,2.3-.8,2.3-2.4s-.7-2.1-2.1-2.1ZM115.1,18.1c-1.2,0-2-.9-2-2.2s.8-2.2,2.1-2.2,2,.9,2,2.2-.8,2.3-2.1,2.3ZM115.1,14.4c-.7,0-1.1.6-1.1,1.5s.4,1.5,1.1,1.5,1.1-.7,1.1-1.5-.4-1.5-1.1-1.5ZM124.3,13.8l-1.3,4.2h-.9l-.6-1.8c-.1-.5-.3-.9-.3-1.4h0c0,.5-.2.9-.3,1.4l-.6,1.8h-.9l-1.2-4.2h1l.5,2c.1.5.2.9.3,1.4h0c0-.4.2-.8.3-1.4l.6-2h.8l.6,2c.1.5.3,1,.3,1.4h0c0-.4.2-.9.3-1.4l.5-2h.9ZM129.2,18h-.9v-2.4c0-.8-.3-1.1-.9-1.1s-.9.5-.9,1v2.5h-.9v-3c0-.4,0-.8,0-1.2h.8v.7h0c.3-.5.8-.7,1.3-.7.9,0,1.5.7,1.5,1.8v2.5ZM131.8,18h-.9v-6.2h.9v6.2ZM135.2,18.1c-1.2,0-2-.9-2-2.2s.8-2.2,2.1-2.2,2,.9,2,2.2c0,1.3-.8,2.3-2.1,2.3ZM135.3,14.4c-.7,0-1.1.6-1.1,1.5s.4,1.5,1.1,1.5,1.1-.7,1.1-1.5c0-.9-.4-1.5-1.1-1.5ZM141.1,18v-.5h0c-.3.4-.7.6-1.2.6-.8,0-1.3-.5-1.3-1.2,0-1,.9-1.6,2.5-1.6h0c0-.6-.3-.9-.9-.9s-.8.1-1.1.3l-.2-.6c.4-.2.9-.4,1.5-.4,1.1,0,1.7.6,1.7,1.8v1.6c0,.4,0,.8,0,1h-.9ZM140.9,15.9c-1,0-1.6.3-1.6.9s.3.7.6.7.9-.4.9-.9v-.7ZM146.4,18v-.7h0c-.3.5-.7.8-1.4.8-1,0-1.8-.9-1.8-2.2s.8-2.3,1.9-2.3,1,.2,1.2.6h0v-2.4h.9v5c0,.4,0,.8,0,1.1h-.8ZM146.3,15.5c0-.6-.4-1.1-1-1.1s-1.1.6-1.1,1.5.4,1.4,1.1,1.4,1-.5,1-1.1v-.7ZM153.2,18.1c-1.2,0-2-.9-2-2.2s.8-2.2,2.1-2.2,2,.9,2,2.2c0,1.3-.8,2.3-2.1,2.3ZM153.3,14.4c-.7,0-1.1.6-1.1,1.5s.4,1.5,1.1,1.5,1.1-.7,1.1-1.5c0-.9-.4-1.5-1.1-1.5ZM160.4,18h-.9v-2.4c0-.8-.3-1.1-.9-1.1s-.9.5-.9,1v2.5h-.9v-3c0-.4,0-.8,0-1.2h.8v.7h0c.3-.5.8-.7,1.3-.7.9,0,1.5.7,1.5,1.8v2.5ZM166.8,14.5h-1v2.1c0,.5.2.8.5.8s.3,0,.4,0v.7c-.2,0-.4.1-.7.1-.7,0-1.2-.4-1.2-1.5v-2.1h-.6v-.7h.6v-.8l.9-.3v1.1h1v.7ZM171.8,18h-.9v-2.4c0-.8-.3-1.1-.9-1.1s-.9.3-.9,1v2.6h-.9v-6.2h.9v2.6h0c.3-.5.7-.7,1.3-.7.9,0,1.4.7,1.4,1.8v2.5ZM176.9,16.1h-2.8c0,.8.5,1.3,1.3,1.3s.8,0,1.1-.2v.7c-.3.2-.7.3-1.3.3-1.3,0-2.1-.8-2.1-2.1s.8-2.3,2-2.3,1.8.8,1.8,2c0,.1,0,.3,0,.4ZM176,15.5c0-.7-.3-1.1-.9-1.1s-1,.5-1,1.1h2Z"/>
    </g>
  </g>
</svg>