<?xml version="1.0" encoding="UTF-8"?>
<svg xmlns="http://www.w3.org/2000/svg" version="1.1" viewBox="0 0 258 46">
  <defs>
    <style>
      .cls-1 {
        fill: #ea4335;
      }

      .cls-2 {
        fill: #fff;
      }

      .cls-3 {
        fill: #fbbc04;
      }

      .cls-4 {
        fill: #4285f4;
      }

      .cls-5 {
        fill: #34a853;
      }

      .cls-6 {
        fill: #204b4a;
      }
    </style>
  </defs>
  <!-- Generator: Adobe Illustrator 28.7.1, SVG Export Plug-In . SVG Version: 1.2.0 Build 142)  -->
  <g>
    <g id="Layer_1">
      <rect class="cls-6" x="4.3" y="1.3" width="250" height="44" rx="4" ry="4"/>
      <path class="cls-2" d="M183.1,21.6l-2.1,5.3h0l-2.2-5.3h-1.9l3.2,7.3-1.8,4.1h1.9l5-11.4h-2ZM168.5,17.2h-1.8v12.1h1.8v-12.1ZM161.8,17.2h-4.3v12.1h1.8v-4.6h2.5c.5,0,1,0,1.5-.2.5-.2.9-.5,1.3-.8.4-.3.7-.8.9-1.2.2-.5.3-1,.3-1.5,0-.5-.1-1-.3-1.5-.2-.5-.5-.9-.9-1.2-.4-.4-.8-.6-1.3-.8-.5-.2-1-.3-1.5-.2ZM161.8,23.1h-2.6v-4.1h2.6c.5,0,1.1.2,1.5.6.4.4.6.9.6,1.5s-.2,1.1-.6,1.5c-.4.4-.9.6-1.5.6h0ZM173,21.3c-.7,0-1.3.1-1.9.4-.6.3-1,.8-1.3,1.4l1.6.7c.2-.3.4-.5.7-.7.3-.2.6-.2,1-.2.2,0,.5,0,.7,0,.2,0,.4.2.6.3.2.1.3.3.4.5.1.2.2.4.2.6h0c-.6-.2-1.2-.4-1.9-.4-1.7,0-3.5.9-3.5,2.8s1.4,2.7,3,2.7c.5,0,.9,0,1.3-.3.4-.2.7-.5,1-.9h0v.9h1.8v-4.7c0-2.2-1.6-3.3-3.7-3.3h0ZM172.8,28c-.6,0-1.4-.3-1.4-1s1-1.3,1.9-1.3c.6,0,1.1.1,1.7.4,0,.5-.3,1-.7,1.4-.4.4-.9.6-1.4.6ZM107.6,29.6c-1.7,0-3.4-.7-4.6-1.9-1.2-1.2-1.9-2.8-1.9-4.5,0-1.7.7-3.3,1.9-4.5,1.2-1.2,2.9-1.9,4.6-1.9.8,0,1.6.1,2.4.4.8.3,1.4.8,2,1.3l-1.2,1.2c-.8-.8-2-1.3-3.2-1.3-1.2,0-2.4.5-3.3,1.4-.9.9-1.4,2.1-1.4,3.3s.5,2.4,1.4,3.3c.9.9,2.1,1.4,3.3,1.4.6,0,1.2,0,1.8-.3.6-.2,1.1-.6,1.5-1,.6-.6.9-1.4,1-2.2h-4.2v-1.7h5.9c0,.4,0,.7,0,1.1,0,1.5-.5,3-1.5,4.1-.6.6-1.3,1-2.1,1.3-.8.3-1.6.4-2.4.4ZM122.7,25.5c0,.6,0,1.1-.3,1.6-.2.5-.5,1-.9,1.4-.4.4-.8.7-1.3.9-.5.2-1.1.3-1.6.3s-1.1-.1-1.6-.3c-.5-.2-1-.5-1.3-.9-.4-.4-.7-.9-.9-1.4-.2-.5-.3-1.1-.3-1.6,0-.5,0-1.1.3-1.6.2-.5.5-1,.9-1.4.4-.4.8-.7,1.3-.9.5-.2,1.1-.3,1.6-.3s1.1.1,1.6.3c.5.2,1,.5,1.3.9.4.4.7.9.9,1.4.2.5.3,1.1.3,1.6ZM120.9,25.5c0-.3,0-.6-.1-.9-.1-.3-.3-.6-.5-.8-.2-.2-.5-.4-.8-.6-.3-.1-.6-.2-.9-.2s-.6,0-.9.2c-.3.1-.6.3-.8.6-.2.2-.4.5-.5.8-.1.3-.1.6-.1.9,0,.3,0,.6.1.9.1.3.3.6.5.8.2.2.5.4.8.6.3.1.6.2.9.2s.6,0,.9-.2c.3-.1.6-.3.8-.6.2-.2.4-.5.5-.8.1-.3.1-.6.1-.9ZM131.9,25.5c0,1.1-.4,2.1-1.2,2.9-.8.8-1.8,1.2-2.9,1.2s-2.1-.4-2.9-1.2c-.8-.8-1.2-1.8-1.2-2.9s.4-2.1,1.2-2.9c.8-.8,1.8-1.2,2.9-1.2s2.1.4,2.9,1.2c.8.8,1.2,1.8,1.2,2.9ZM130.1,25.5c0-.3,0-.6-.1-.9-.1-.3-.3-.6-.5-.8-.2-.2-.5-.4-.8-.6-.3-.1-.6-.2-.9-.2s-.6,0-.9.2c-.3.1-.6.3-.8.6-.2.2-.4.5-.5.8-.1.3-.1.6-.1.9,0,.3,0,.6.1.9.1.3.3.6.5.8.2.2.5.4.8.6.3.1.6.2.9.2s.6,0,.9-.2c.3-.1.6-.3.8-.6.2-.2.4-.5.5-.8.1-.3.1-.6.1-.9ZM140.8,21.6v7.4c0,3-1.8,4.3-3.9,4.3-.8,0-1.5-.2-2.2-.6-.7-.4-1.2-1-1.5-1.8l1.6-.7c.2.4.4.8.8,1,.4.3.8.4,1.3.4,1.4,0,2.2-.8,2.2-2.4v-.6h0c-.3.3-.6.5-1,.7s-.8.2-1.2.2c-1.1,0-2.1-.4-2.9-1.2-.8-.8-1.2-1.8-1.2-2.9s.4-2.1,1.2-2.9c.8-.8,1.8-1.2,2.9-1.2.4,0,.8,0,1.2.2.4.2.7.4,1,.7h0v-.7h1.7ZM139.2,25.5c0-.3,0-.6-.1-.9,0-.3-.3-.6-.5-.8-.2-.2-.5-.4-.7-.6-.3-.1-.6-.2-.9-.2-.3,0-.6,0-.9.2-.3.1-.5.3-.8.6-.2.2-.4.5-.5.8-.1.3-.2.6-.1.9,0,.3,0,.6.1.9s.3.6.5.8c.2.2.5.4.8.5.3.1.6.2.9.2.3,0,.6,0,.9-.2.3-.1.5-.3.7-.6.2-.2.4-.5.5-.8s.1-.6.1-.9ZM144,17.2v12.1h-1.8v-12.1h1.8ZM151.1,26.8l1.4.9c-.4.6-.9,1-1.5,1.3-.6.3-1.3.5-1.9.5-.5,0-1.1,0-1.6-.3-.5-.2-1-.5-1.3-.9-.4-.4-.7-.8-.9-1.3-.2-.5-.3-1-.3-1.6,0-.9.2-1.9.7-2.6.6-.7,1.4-1.3,2.3-1.4.9-.2,1.9,0,2.7.4.8.5,1.4,1.2,1.7,2.1l.2.5-5.5,2.3c.2.4.5.7.8.9.4.2.8.3,1.2.3.4,0,.8-.1,1.1-.3.3-.2.6-.5.8-.8ZM146.8,25.4l3.7-1.5c-.1-.3-.4-.5-.6-.7-.3-.2-.6-.2-.9-.2-.3,0-.6,0-.9.2-.3.1-.5.3-.7.5-.2.2-.4.5-.5.8,0,.3-.1.6-.1.9Z"/>
      <path class="cls-1" d="M82.8,22.8l-9.2,9.7c.1.4.3.7.5,1,.3.3.6.5.9.6.4.1.7.2,1.1.2.4,0,.8-.1,1.1-.3l10.4-5.9-4.8-5.2Z"/>
      <path class="cls-3" d="M92.2,21.2l-4.5-2.6-5.1,4.4,5.1,5,4.5-2.5c.4-.2.7-.5,1-.9.2-.4.4-.8.4-1.3s-.1-.9-.4-1.3c-.2-.4-.6-.7-1-.9h0Z"/>
      <path class="cls-4" d="M73.6,14.2c0,.2,0,.4,0,.6v17.1c0,.2,0,.4,0,.6l9.5-9.4-9.5-8.9Z"/>
      <path class="cls-5" d="M82.9,23.3l4.8-4.7-10.4-5.9c-.4-.2-.8-.3-1.3-.4-.5,0-1.1.2-1.5.5-.4.3-.8.8-.9,1.3l9.3,9.2Z"/>
    </g>
  </g>
</svg>